<?xml version="1.0" encoding="UTF-8"?>
<svg id="Layer_1" data-name="Layer 1" xmlns="http://www.w3.org/2000/svg" viewBox="0 0 500 500">
  <defs>
    <style>
      .cls-1 {
        fill: #000;
      }

      .cls-1, .cls-2 {
        stroke-width: 0px;
      }

      .cls-2 {
        fill: #fff;
      }
    </style>
  </defs>
  <path class="cls-1" d="M59.52,275.72c-2.28-6.48-4.93-12.73-6.7-19.23-10.86-40.07,5.3-78.83,41.32-99.6,21.35-12.31,44.29-17.37,68.79-14.39,12.33,1.5,24.12,4.99,34.01,13.01,14.52,11.79,16.18,26.86,4.65,41.61-1.83,2.34-3.94,4.47-6.06,6.57-2.14,2.12-5.34,2.12-7.28.19-1.87-1.85-1.45-4.3.86-6.81,2.2-2.39,4.43-4.82,6.24-7.5,6.63-9.82,5.1-19.4-4.07-26.92-7.2-5.89-15.64-9.11-24.64-10.56-33.97-5.48-63.47,3.87-87.34,28.55-17.56,18.16-22.87,40.6-19.02,65.32,1.76,11.26,5.84,21.71,11.62,31.48.8,1.35,2.4,2.59,3.89,3.11,19.35,6.66,38.09,14.57,55.1,26.13,7.88,5.36,15.42,11.18,20.94,19.1,1.46,2.09,2.67,4.54,3.29,7,1.33,5.31-1.61,9.39-7.03,10.3-5.46.91-10.61-.55-15.51-2.63-26.06-11.03-47.83-27.54-64.16-50.83-1.31-1.87-2.77-3.04-5-3.58-7.51-1.8-14.99-3.74-22.48-5.63-.45-.11-.91-.22-1.35-.35-2.75-.81-4.07-2.67-3.6-5.11.44-2.31,2.56-3.92,5.25-3.45,3.94.68,7.82,1.68,11.72,2.58,2.24.52,4.46,1.1,6.57,1.63ZM61.52,277.41c-1.9-.49-4.12-1.1-6.36-1.64-4.43-1.06-8.86-2.2-13.33-3.1-3.08-.62-5.57,1.31-4.66,3.64.49,1.26,2.2,2.48,3.6,2.86,8.07,2.23,16.23,4.14,24.31,6.34,1.28.35,2.65,1.37,3.41,2.47,8.14,11.85,17.9,22.17,29.31,30.88,11.74,8.96,24.11,16.93,38.27,21.55,3.78,1.23,8.05,1.6,12.04,1.4,4.48-.23,6.96-3.92,5.98-8.31-.55-2.47-1.72-4.93-3.14-7.05-4.48-6.67-10.66-11.67-17.08-16.33-17.83-12.92-37.8-21.5-58.54-28.44-2.12-.71-3.45-1.83-4.53-3.7-5.72-10.03-9.87-20.63-11.67-32.06-3.46-21.98.11-42.74,14.37-60.06,25.11-30.49,57.82-41.49,96.59-34.11,9.36,1.78,17.91,5.69,24.72,12.72,6.05,6.25,7.6,14.41,3.44,22.06-2.19,4.03-5.29,7.6-8.26,11.15-1.45,1.74-2.72,3.21-1.02,5.29,1.43,1.76,4.25,1.63,6.16-.42,2.6-2.79,5.27-5.57,7.41-8.7,8.91-13.02,6.87-26.57-5.28-36.7-9.96-8.3-21.81-12.02-34.34-13.55-24.81-3.02-47.99,2.18-69.43,14.96-34.83,20.77-50.24,58.61-39.56,97.66,1.97,7.21,5.03,14.12,7.59,21.17Z"/>
  <path class="cls-1" d="M207.44,303.57c3.19,0,3.15-1.92,3.14-4.14-.07-13.78-.07-27.55,0-41.33.01-2.13-.16-3.73-3.24-3.47.56-.63.83-1.18,1.08-1.18,9.21.12,18.51-.42,27.61.66,10.03,1.19,15.57,7.08,17.03,17.19.8,5.51.7,11.36-.21,16.86-1.52,9.21-7.88,15.25-17.2,16.13-8.87.84-17.86.5-26.79.63-.41,0-.83-.42-1.24-.65-.06-.23-.12-.47-.18-.7ZM217.87,303.1c4.25,0,8.17.31,12.03-.06,8.94-.86,13.97-5.47,15.91-14.19,1.45-6.54,1.46-13.1-.06-19.63-1.25-5.38-3.88-9.89-9.04-12.41-6.04-2.96-12.47-1.8-18.84-1.88v48.17Z"/>
  <path class="cls-1" d="M369.98,286.86c-5.93-8.77-1.85-17.9,8.57-19.15,3.73-.45,7.57-.07,11.7-.07.4-.79.84-2.16,1.68-3.22,1.13-1.43,2.41-2.87,3.93-3.8.92-.56,2.56-.5,3.6-.06.48.2.49,1.96.41,3-.09,1.24-.5,2.45-.84,4-1.14-1.63-1.79-2.56-2.45-3.5-1.71,1.23-3.42,2.46-5.5,3.96,1.14.8,1.54,1.15,2,1.39,4.36,2.36,6.05,6.08,5.64,10.91-.43,4.99-3.38,8.05-7.89,9.45-6.55,2.04-13.05,1.68-19.16-1.58-2.39,2.46-2.49,5.2.31,7.17,2.53,1.78,5.55,2.93,8.46,4.09,4.56,1.83,9.32,3.2,13.79,5.22,3.26,1.47,5.34,4.3,6.05,7.92,1.14,5.82-1.24,10.71-7,13.09-7.59,3.13-15.32,2.89-22.72-.74-4.12-2.02-5.68-6.03-4.43-10.06.78-2.52,4.26-5.47,6.78-5.62.5-.03,1.03.41,1.08.43-1.39,2.01-3.13,3.67-3.81,5.69-1.15,3.41.44,6.64,3.79,8.45,5.4,2.92,11.06,3.14,16.7.73,2.89-1.23,4.93-3.37,5.15-6.73.22-3.44-1.42-6.06-4.32-7.56-2.87-1.48-6.02-2.41-9.05-3.57-3.21-1.23-6.5-2.27-9.63-3.69-6.29-2.86-9.19-10.19-2.82-16.19ZM374.33,279.15c-.03,5.22,1.89,8.34,5.9,9.66,4.14,1.36,8.73-.48,10.42-4.18,2.26-4.93.75-12.11-3.03-14.41-2.97-1.8-6-1.82-9.01-.15-3.58,1.98-4.3,5.36-4.28,9.07Z"/>
  <path class="cls-1" d="M445.3,304.51c-.94.15-1.89.44-2.83.43-7.82-.02-7.26.98-7.26-7.1,0-6.8.02-13.59,0-20.39-.02-5.67-3.68-8.69-9.3-7.72-4.57.79-8.03,4.87-8.03,9.49,0,6.61.06,13.22-.03,19.83-.03,2.33.15,4.27,3.05,4.6-1.37,1.76-11.3,1.89-13.31.04,3.73-.07,3.21-2.58,3.21-4.88-.02-8.56,0-17.13,0-25.69,0-1.01,0-2.01,0-3.03-.63-.15-1-.19-1.33-.33-.54-.22-1.04-.51-1.57-.78.53-.38,1.01-.91,1.6-1.09.79-.24,1.65-.23,2.49-.28q5.3-.3,6.3,4.84c3.84-4.15,8.42-5.77,13.91-4.91,6.25.98,10.1,5.29,10.12,11.65.02,6.79.03,13.59,0,20.38-.01,2.07-.25,4.18,3.38,3.73-.12.4-.25.8-.37,1.2Z"/>
  <path class="cls-1" d="M464.52,344.16c-1.77.96-3.5,1.98-5.3,2.86-13.96,6.85-28.81,10.54-44.19,12.23-35.75,3.94-69.94-2.83-103.21-15.38-18.95-7.15-38.16-13.25-58.27-16.16-22.02-3.19-43.91-3.27-65.17,4.24-6.17,2.18-11.83,5.76-17.74,8.66-.65.32-1.4.45-2.1.67-.14-.28-.27-.56-.41-.84,1.4-.98,2.75-2.05,4.2-2.94,11.58-7.07,24.34-10.66,37.68-12.31,29.23-3.61,57.34,1.83,84.94,10.89,14.85,4.88,29.48,10.49,44.48,14.81,23.19,6.69,46.96,9.29,71.09,7.16,18.05-1.59,35.48-5.63,51.56-14.38.61-.33,1.43-.28,2.15-.41.1.3.2.6.3.9Z"/>
  <path class="cls-1" d="M333.22,276.66c-.68-1-1.13-1.64-1.55-2.31-2.8-4.46-8.07-6.54-13.08-5.03-2.64.79-4.72,2.31-5.11,5.29-.39,2.91,1.18,4.82,3.58,6.06,2.23,1.15,4.58,2.06,6.85,3.12,2.61,1.22,5.33,2.27,7.76,3.77,5.97,3.69,6.17,10.74.27,14.59-2.42,1.58-5.37,2.66-8.22,3.17-5.05.91-10,.03-14.69-2.2-2.03-.96-3.17-2.19-2.3-4.53.24-.63.53-1.25.79-1.87.51.44,1.18.78,1.5,1.33,2.87,4.87,7.32,6.45,12.62,5.82,1.66-.2,3.43-1.02,4.79-2.03,3.26-2.44,3.32-6.61.02-9.01-2.23-1.62-4.86-2.69-7.36-3.91-2.51-1.22-5.17-2.14-7.59-3.51-5.83-3.32-6.42-10.31-1.18-14.58,5.46-4.46,11.73-4.07,18.07-2.44,1.07.28,2.11.75,3.11,1.24,3.14,1.58,3.56,3.02,1.73,7.01Z"/>
  <path class="cls-1" d="M296.33,284.33h-25.26c-.48,6.06.28,11.55,4.43,16.01,4.24,4.57,11.29,3.94,16.05-1.24.6-.66,1.18-1.35,1.76-2.02l.87.47c-.4.78-.65,1.67-1.21,2.32-6.76,7.86-18.63,7.66-25.13-.4-6.75-8.37-5.15-23.16,3.33-29.06,5.58-3.88,11.66-4.28,17.69-1.09,5.05,2.67,8.2,9.26,7.47,15.02ZM289.81,282.59c.67-7.55-3.03-13.48-8.44-13.75-5.55-.28-10.08,5.82-10.13,13.75h18.57Z"/>
  <path class="cls-1" d="M171.11,243.04c1.41,24.06,2.81,48.12,4.24,72.18.15,2.47-.41,4.47-2.92,5.4-3.38,1.25-6.49-.77-6.71-4.42-1.31-21.64-2.58-43.28-3.85-64.93-1.42-24.15-2.84-48.3-4.26-72.46-.2-3.34-.45-6.68-.61-10.03-.13-2.82,1.69-4.82,4.47-5.04,2.63-.2,4.88,1.37,5.09,4.05.6,7.7,1,15.41,1.46,23.12,1.03,17.37,2.05,34.74,3.07,52.11,0,0,.02,0,.03,0ZM162.46,242.22s-.02,0-.02,0c1.46,24.43,2.91,48.85,4.37,73.28.18,2.97,1.5,4.42,3.92,4.33,2.48-.1,3.64-1.57,3.48-4.64-.58-10.87-1.19-21.74-1.83-32.61-1.84-31.02-3.7-62.05-5.55-93.07-.4-6.69-.71-13.38-1.21-20.06-.1-1.29-.54-3.02-1.44-3.66-1-.71-2.83-.79-4.1-.43-1.9.53-2.02,2.29-1.91,4.13,1.47,24.24,2.88,48.49,4.3,72.73Z"/>
  <path class="cls-1" d="M347.92,270.09c-1.27-.31-2.11-.52-3.65-.9,1.03-.68,1.45-1.17,1.94-1.24,1.37-.22,2.77-.29,4.16-.37q4.83-.29,4.83,4.68c0,8.64-.01,17.29,0,25.93,0,2.39-.77,5.22,3.25,5.52-1.99,1.7-11.81,1.69-13.82-.03,3.95-.07,3.3-2.72,3.29-5.06-.02-8.46,0-16.92,0-25.38v-3.15Z"/>
  <path class="cls-1" d="M464.03,301.12c0,2.61-1.99,4.52-4.64,4.49-2.52-.04-4.35-1.88-4.39-4.43-.04-2.72,1.79-4.6,4.46-4.59,2.7,0,4.57,1.86,4.57,4.54Z"/>
  <path class="cls-1" d="M351.72,250.95c2.39.06,4.4,2.13,4.37,4.5-.04,2.56-2.09,4.5-4.69,4.41-2.41-.08-4.27-2.1-4.22-4.58.05-2.35,2.18-4.39,4.53-4.33Z"/>
  <path class="cls-2" d="M217.87,303.1v-48.17c6.37.08,12.79-1.07,18.84,1.88,5.16,2.53,7.79,7.03,9.04,12.41,1.52,6.52,1.51,13.09.06,19.63-1.94,8.72-6.97,13.33-15.91,14.19-3.86.37-7.78.06-12.03.06Z"/>
  <path class="cls-1" d="M79.86,290.4c2.57.97,5.15,1.93,7.71,2.93,15.51,6,30.34,13.34,43.55,23.51,4.68,3.6,8.77,8.01,12.86,12.31,1.49,1.56,2.21,3.86,3.28,5.83-.24.31-.48.61-.73.92-2.04-.34-4.15-.46-6.1-1.06-12.71-3.91-23.79-10.91-34.47-18.57-9.2-6.59-17.4-14.28-24.56-23.06-.63-.77-1.23-1.57-1.85-2.36.1-.15.2-.3.3-.45ZM83.17,293.15c5.79,7.53,12.59,14,20.1,19.69,11.47,8.68,23.5,16.45,37.35,20.91,1.52.49,3.15.65,4.73.96.16-.22.32-.45.47-.67-1.14-1.76-2.13-3.65-3.45-5.26-5.19-6.33-11.62-11.23-18.4-15.73-12.7-8.43-26.38-14.87-40.81-19.9Z"/>
</svg>